<svg xmlns="http://www.w3.org/2000/svg" width="35" height="35" viewBox="0 0 150 150">
    <rect width="150" height="150" fill="#212529"/>
    <g transform="translate(20, 20)" fill="#ffffff">
        <path d="M67.3 1.9C59.1 7 62.8 20 72.4 20c4.2 0 9.1-3.9 9.9-7.7.7-4-1.6-8.9-5.2-10.7-3.9-2.1-5.9-2-9.8.3zM38 11.8c-4.6 2.3-6 5.3-6 13.4 0 3.8-.2 6.8-.5 6.8s-1.7-.8-3.1-1.7c-3.3-2.1-11-2.1-15 0-3.7 1.9-7.7 6.2-10 10.7C1.1 45.5.3 60.2 2 65.6c4.2 13.3 16.1 18.9 27.4 12.9 2.6-1.4 4.9-2.5 5-2.5.2 0 .6.9.9 2 .5 1.9 1.2 2.1 7.4 1.8l6.8-.3.3-34.8L50 10h-4.2c-2.4 0-5.9.8-7.8 1.8zm-8.5 31.4c2.4 1.1 2.5 1.4 2.5 11.3 0 11.7-.6 12.8-6.7 12.3-5.4-.4-7.6-4.8-7-13.8.4-5.4.9-6.8 3.2-8.7 3-2.6 4.3-2.8 8-1.1zM63.6 57.2c-.4 15-1.2 28.8-1.7 30.5-.6 1.8-2.8 4.8-5 6.7-4.6 3.9-3.9 4.6 4.5 4.6 7.7 0 13.4-3.2 16.6-9.5 2.5-4.9 2.5-5.4 2.9-32.2l.3-27.3H64.3l-.7 27.2zM97 61.2c-1.4.7-3.3 3-4.3 5-1.6 3.3-1.6 4-.4 7.1 3.8 8.9 14.6 9 18.3.1 1.2-2.9 1.2-3.9.1-6.7-.8-1.7-2.1-3.8-3-4.5-2.3-1.9-7.9-2.4-10.7-1z"/>
    </g>
</svg>