<svg width="800" height="800" viewBox="0 0 32 32" fill="none" xmlns="http://www.w3.org/2000/svg"><rect x="2" y="2" width="28" height="28" rx="14" fill="#1275B1"/><path d="M12.619 9.692c0 .935-.81 1.692-1.81 1.692C9.81 11.384 9 10.627 9 9.692 9 8.758 9.81 8 10.81 8c.998 0 1.809.758 1.809 1.692ZM9.247 12.628h3.093V22H9.247v-9.372ZM17.32 12.628h-3.093V22h3.093v-4.795c0-1.107.378-2.22 1.886-2.22 1.705 0 1.695 1.45 1.687 2.572-.01 1.467.014 2.965.014 4.443H24v-4.946c-.026-3.159-.85-4.614-3.557-4.614-1.608 0-2.604.73-3.123 1.39v-1.202Z" fill="#fff"/></svg>