<svg width="800" height="800" viewBox="0 0 24 24" fill="none"
    xmlns="http://www.w3.org/2000/svg">
    <g clip-path="url(#a)">
        <path fill="transparent" d="M0 0h24v24H0z"/>
        <path d="M2.014 6.871c-.667 3.19 1.846 6.989 5 10.144 3.156 3.155 6.954 5.667 10.144 5 2.624-.548 3.963-1.945 4.717-3.136.26-.411.13-.945-.26-1.235l-3.693-2.754a1 1 0 0 0-1.305.094l-1.96 1.96s-1.904-.62-4.428-3.143c-2.524-2.524-3.143-4.43-3.143-4.43l1.96-1.959a1 1 0 0 0 .094-1.305L6.386 2.415c-.291-.39-.824-.521-1.235-.26-1.191.753-2.589 2.092-3.137 4.716Z" stroke="#000" stroke-linecap="round" stroke-linejoin="round"/>
    </g>
    <defs>
        <clipPath id="a">
            <path fill="#fff" d="M0 0h24v24H0z"/>
        </clipPath>
    </defs>
</svg>